<svg enable-background="new 0 0 1000 1000" viewBox="0 0 1000 1000" xmlns="http://www.w3.org/2000/svg"><path d="m960.9 820.2c18 18 29.1 42.9 29.1 70.3 0 54.9-44.5 99.5-99.4 99.5-27.5 0-52.3-11.1-70.3-29.1l-210.7-210.7c-59.2 35-128 55.4-201.8 55.4-219.7 0-397.8-178.1-397.8-397.8s178.1-397.8 397.8-397.8 397.8 178.1 397.8 397.8c0 73.7-20.4 142.6-55.4 201.8zm-553.1-710.8c-164.8 0-298.4 133.6-298.4 298.4s133.6 298.3 298.3 298.3 298.3-133.6 298.3-298.3c.1-164.8-133.4-298.4-298.2-298.4z" fill="#555"/></svg>