<svg clip-rule="evenodd" fill-rule="evenodd" stroke-linejoin="round" stroke-miterlimit="2" viewBox="0 0 44 44" xmlns="http://www.w3.org/2000/svg"><path fill="#fff" d="m259.253.002c-137.75 0-249.416 111.661-249.416 249.411 0 47.117 13.077 91.184 35.788 128.778l-45.012 133.811 138.087-44.214c35.73 19.761 76.823 31.023 120.553 31.023 137.741 0 249.407-111.656 249.407-249.396.002-137.752-111.663-249.413-249.407-249.413zm0 459.088c-42.595 0-82.254-12.776-115.367-34.678l-80.582 25.806 26.19-77.873c-25.102-34.568-39.933-77.046-39.933-122.939 0-115.623 94.067-209.687 209.692-209.687 115.619 0 209.688 94.064 209.688 209.687 0 115.619-94.067 209.684-209.688 209.684zm-58.497-312.843c-4.04-9.737-7.135-10.067-13.376-10.363-2.14-.103-4.461-.201-7.001-.201-8.04 0-16.377 2.368-21.4 7.507-6.114 6.254-21.4 20.903-21.4 50.981 0 30.083 21.908 59.151 24.961 63.231 3.061 4.076 42.729 66.709 104.446 92.281 48.171 19.953 62.474 18.176 73.464 15.773 15.992-3.492 36.072-15.269 41.167-29.539 5.094-14.279 5.094-26.517 3.567-29.059-1.53-2.553-5.605-4.076-11.719-7.142-6.114-3.056-36.176-17.846-41.779-19.881-5.606-2.038-10.787-1.416-15.097 4.544-5.949 8.234-11.67 16.695-16.408 21.712-3.719 3.938-9.704 4.486-14.85 2.299-6.767-2.883-25.815-9.521-49.17-30.341-18.172-16.201-30.444-36.214-34.012-42.337-3.567-6.114-.314-9.764 2.435-13.09 3.135-3.797 6.027-6.524 9.084-10.09 3.057-3.571 4.765-5.473 6.803-9.558 2.037-4.076.666-8.283-.863-11.345-1.532-3.061-13.773-33.134-18.852-45.382z" transform="matrix(.0859375 0 0 .0859375 -.052699 -.000155)"/></svg>